<svg xmlns="http://www.w3.org/2000/svg" version="1.1" xmlns:xlink="http://www.w3.org/1999/xlink" xmlns:svgjs="http://svgjs.dev/svgjs" viewBox="0 0 7.343560218173295 5.24853083909936"><g transform="matrix(1,0,0,1,1.8732871904635096,2.5696290728782376)"><g><path d=" M -1.2489823301845586 0.5856379325691323 Q -1.1970442830695516 0.507657555153533 -1.1133981063205658 0.47266373976741893 Q -1.02975192957158 0.43766992438130503 -0.9234804764446032 0.45013500561973896 Q -0.8172090233176262 0.4626000868581729 -0.7444275938283049 0.5159420358429161 Q -0.6716461643389837 0.5692839848276594 -0.6401561547935603 0.6570500334958611 Q -0.6086661452481368 0.7448160821640627 -0.6219466990909541 0.8580398733460755 L -0.6472263498268435 1.0735623530521874 L -1.3394805818782722 0.9923645808728563 L -1.3142009311423828 0.7768421011667443 Q -1.3009203772995654 0.6636183099847317 -1.2489823301845586 0.5856379325691323 M -0.743451008885204 0.6363758196489931 Q -0.8061929540314661 0.557529777774569 -0.93431461247427 0.5425017826366441 Q -1.0634294620677933 0.5273572914123785 -1.1442618862436562 0.5898662443859596 Q -1.225094310419519 0.6523751973595406 -1.2407047859891467 0.7854628115559417 L -1.25538329286805 0.9106048965465873 L -0.7111145422738134 0.9744447518611833 L -0.69643603539491 0.8493026668705377 Q -0.6807090637389419 0.7152218615234173 -0.743451008885204 0.6363758196489931 M -0.9183854770993696 0.17154850668217853 Q -0.9627829703653397 0.11482891049445748 -0.9708174835109682 0.04626728421187343 Q -0.9788519966565966 -0.022294342070710627 -0.9494144965665772 -0.08909579107034016 Q -0.9203802499024485 -0.15498215172750907 -0.8706400797139617 -0.19098097767531408 Q -0.8208999095254748 -0.2269798036231191 -0.7674061683566653 -0.23181918951023506 L -0.8589150026027331 -0.27214453209930256 L -0.8218156874207909 -0.35633265960568505 L -0.3203472757523389 -0.13534978221759442 L -0.3574465909342811 -0.05116165471121198 L -0.4507856018652704 -0.09229350415206095 Q -0.41774920392620607 -0.04822995446287015 -0.41049797942384586 0.013429754774332447 Q -0.40324675492148565 0.0750894640115351 -0.4318777481597237 0.14006073632624333 Q -0.461315248249743 0.20686218532587286 -0.5180503807058774 0.24633527419898857 Q -0.5747855131620118 0.2858083630721043 -0.6479768719022388 0.2907098940328734 Q -0.721168230642466 0.2956114249936425 -0.7971205630667023 0.26214139064471637 Q -0.8739879838333994 0.22826810286989957 -0.9183854770993696 0.17154850668217853 M -0.718006761743988 -0.18273050826582404 Q -0.7701821611444462 -0.1784029572952781 -0.8097400961350866 -0.1493914116750209 Q -0.849298031125727 -0.1203798660547637 -0.8698639558461514 -0.073710360589269 Q -0.890429880566576 -0.02704085512377441 -0.885404404234928 0.021070937480950347 Q -0.8803789279032801 0.0691827300856751 -0.848366199797356 0.11060959623816324 Q -0.8163534716914316 0.15203646239065127 -0.7596179944588695 0.17703817479587325 Q -0.7019674288838467 0.20244314062698585 -0.6493344853121582 0.19831721636938532 Q -0.5967015417404697 0.1941912921117848 -0.5573452334627746 0.16563729066275787 Q -0.5179889251850797 0.13708328921373092 -0.49742300046465515 0.09041378374823628 Q -0.47685707574423064 0.04374427828274163 -0.4821384695341635 -0.0050266852061587874 Q -0.4874198633240964 -0.05379764869505921 -0.5198901356012511 -0.09542614156049267 Q -0.5523604078784058 -0.13705463442592603 -0.6090958851109678 -0.162056346831148 Q -0.6658313623435299 -0.18705805923636998 -0.718006761743988 -0.18273050826582404 M -0.5227077175040635 -0.6603807755757098 L -0.2641476464565341 -0.4667943874697882 Q -0.23212782341659235 -0.442820840955123 -0.20873088914388366 -0.4465401778097988 Q -0.185333954871175 -0.45025951466447467 -0.1601617310307765 -0.48388032885641347 L -0.12000604061871226 -0.5375135324483159 L -0.058367881266824434 -0.49136445540758533 L -0.10751365162188814 -0.42572381817570476 Q -0.15306338999975205 -0.3648861543998155 -0.20385560434863303 -0.3554441757122029 Q -0.254647818697514 -0.34600219702459034 -0.31868746477739746 -0.39394929005392076 L -0.5772475358249269 -0.5875356781598424 L -0.6198005808884577 -0.5307004922639458 L -0.6798377490883485 -0.5756508919789431 L -0.6372847040248177 -0.6324860778748398 L -0.7477530935126167 -0.7151948133504348 L -0.6932132751917532 -0.7880399107663022 L -0.5827448857039543 -0.7053311752907072 L -0.4970394569140262 -0.8198020426584989 L -0.4370022887141354 -0.7748516429435015 L -0.5227077175040635 -0.6603807755757098 M -0.24213637668198995 -0.928208606655184 Q -0.25707594943057466 -0.9986717826131959 -0.23414907445939784 -1.063784057984711 Q -0.21122219948822107 -1.1288963333562263 -0.15541300899212374 -1.175953046545423 Q -0.10036832795487705 -1.2223651472251786 -0.03986633884312013 -1.2328298170011844 Q 0.020635650268636785 -1.24329448677719 0.07080968414248306 -1.2241224674566769 L 0.006348433198377967 -1.3005734133417417 L 0.07668330341263763 -1.3598777642103184 L 0.42993095858633357 -0.9409265807601631 L 0.3595960883720739 -0.8816222298915863 L 0.2938456124090867 -0.9596021946943525 Q 0.30414525747328963 -0.905501202914613 0.28354929547217306 -0.8469323857057214 Q 0.26295333347105654 -0.7883635684968298 0.2086731618926605 -0.7425960803265151 Q 0.15286397139656316 -0.6955393671373185 0.08455186298449707 -0.6850295695989197 Q 0.01623975457243098 -0.674519772060521 -0.051653380142159366 -0.7022960615648175 Q -0.11954651485674972 -0.7300723510691138 -0.17304935314035694 -0.7935266361537177 Q -0.22719680393340524 -0.8577454306971721 -0.24213637668198995 -0.928208606655184 M 0.09359676078488516 -1.1583140398953584 Q 0.044831848879330616 -1.177366162266462 -0.0034528096031277156 -1.1687006123570582 Q -0.051737468085585936 -1.1600350624476543 -0.09072745048696904 -1.127159824466161 Q -0.12971743288835208 -1.094284586484667 -0.14635612993349412 -1.0488626340757274 Q -0.16299482697863613 -1.0034406816667878 -0.15245538801561398 -0.9521579338236317 Q -0.14191594905259183 -0.9008751859804756 -0.10194997346724666 -0.8534755995317354 Q -0.06133938537246045 -0.8053115036241445 -0.012252167212185389 -0.7858771265236157 Q 0.03683505094808971 -0.7664427494230868 0.08473745470112268 -0.7747859930777701 Q 0.13263985845415566 -0.7831292367324534 0.1716298408555387 -0.816004474713947 Q 0.2106198232569218 -0.8488797126954406 0.22731846877676853 -0.8950062260885261 Q 0.24401711429661538 -0.9411327394816117 0.2331553690788727 -0.9927977420541931 Q 0.22229362386113005 -1.0444627446267745 0.18232764827578488 -1.0918623310755147 Q 0.14236167269043973 -1.1392619175242549 0.09359676078488516 -1.1583140398953584 M 0.6502095950237619 -1.8321089383623874 L 0.6819997448870443 -1.7652853918262297 L 0.40838441244845214 -1.6351176160346814 L 0.5093396180953624 -1.4229077047374235 L 0.7314827592831303 -1.5285884732018489 L 0.7632729091464127 -1.461764926665691 L 0.5411297679586449 -1.3560841582012657 L 0.676023106567708 -1.0725355958721638 L 0.5938482047462167 -1.0334423034727218 L 0.2944193607636785 -1.6628478701713973 L 0.6502095950237619 -1.8321089383623874 M 1.1780325429708483 -1.295569565898147 Q 1.1099352439004295 -1.3177958534719627 1.0626101329640139 -1.3741947353301693 Q 1.0152850220275982 -1.430593617188376 0.9988149003226335 -1.5139826757693653 Q 0.9825385447553745 -1.596390686602343 1.0058488716757967 -1.666740730375343 Q 1.029159198596219 -1.7370907741483432 1.0842802749701135 -1.783144188130189 Q 1.1394013513440082 -1.8291976021120349 1.215923075688916 -1.8443113608530612 Q 1.2924448000338238 -1.8594251195940876 1.3609357399093955 -1.8377862389631305 Q 1.4294266797849673 -1.8161473583321732 1.477635955400542 -1.7604327664856778 Q 1.5258452310161164 -1.7047181746391826 1.5423153527210811 -1.6213291160581933 Q 1.5587854744260459 -1.5379400574772042 1.534494099757612 -1.4673962475664986 Q 1.510202725089178 -1.396852437655793 1.4541974840361245 -1.3501147336622357 Q 1.3981922429830709 -1.3033770296686786 1.3216705186381632 -1.2882632709276522 Q 1.246129842041267 -1.2733432783243313 1.1780325429708483 -1.295569565898147 M 1.391968999271571 -1.4071376736417538 Q 1.4296974312688455 -1.4380337157673564 1.4467819542567026 -1.4882967148250867 Q 1.4638664772445595 -1.5385597138828169 1.451077912155999 -1.603308865251585 Q 1.438289347067438 -1.6680580166203531 1.403868863284684 -1.7081482934485464 Q 1.36944837950193 -1.7482385702767398 1.3238846359870682 -1.7621739668233718 Q 1.2783208924722063 -1.7761093633700042 1.2302495528196362 -1.7666148226224365 Q 1.1811971654190543 -1.7569265157371632 1.1448434219749442 -1.7268116466921244 Q 1.1084896785308342 -1.6966967776470856 1.0928767271649946 -1.6467244277959137 Q 1.0772637757991552 -1.5967520779447417 1.0900523408877159 -1.5320029265759736 Q 1.103034672113982 -1.4662727274591938 1.1359835842747188 -1.4258918014244424 Q 1.1689324964354553 -1.385510875389691 1.2135151922023053 -1.3713817127053531 Q 1.2580978879691556 -1.3572525500210153 1.3061692276217258 -1.3667470907685833 Q 1.354240567274296 -1.3762416315161512 1.391968999271571 -1.4071376736417538 M 1.9237265401992767 -1.8734027740526646 Q 1.9689130170402165 -1.898190519224487 2.0328896359612174 -1.8964607124615793 L 2.030348982278197 -1.8024950534213589 L 2.0063577501828216 -1.8031437309574492 Q 1.8534136455748031 -1.8072790502500253 1.8489269592835114 -1.641339694923679 L 1.8408725465437226 -1.3434485630727673 L 1.7499057915154241 -1.3459081320637767 L 1.764717261922821 -1.8937079315748488 L 1.8556840169511195 -1.8912483625838394 L 1.853278504421451 -1.8022808768968224 Q 1.8785400633583367 -1.848615028880842 1.9237265401992767 -1.8734027740526646 M 2.257337878726716 -1.7384821068183105 Q 2.305578245732443 -1.7919715169024824 2.37270785471268 -1.8114359870509482 Q 2.4398374636929168 -1.8309004571994139 2.5155598173663316 -1.8121888256789314 Q 2.6136105573793427 -1.7879596617870246 2.6654431755986376 -1.7246775182666536 Q 2.7172757938179326 -1.6613953747462828 2.7167919154186984 -1.5718980794704214 L 2.6216535736238953 -1.595407565226925 Q 2.6200570175289766 -1.6473060334956107 2.587696530225396 -1.6851748710995667 Q 2.555336042921815 -1.7230437087035226 2.49708807855765 -1.737437271411586 Q 2.421365724884235 -1.7561489029320687 2.3619330933115465 -1.7157259848738056 Q 2.302500461738858 -1.6753030668155424 2.2789909759823543 -1.5801647250207393 Q 2.2552415975140496 -1.484055583819867 2.2888857625681247 -1.4201175657256677 Q 2.3225299276221993 -1.3561795476314684 2.398252281295614 -1.337467916110986 Q 2.4565002456597793 -1.3230743534029223 2.5020492178329854 -1.3406610283008238 Q 2.547598190006192 -1.3582477031987252 2.574634602110888 -1.4051308816373191 L 2.669772943905691 -1.3816213958808155 Q 2.628264369180875 -1.3053518854306077 2.55207702643434 -1.2721594344029719 Q 2.475889683687805 -1.238966983375336 2.379780542486933 -1.2627163618436408 Q 2.304058188813518 -1.2814279933641233 2.2537210696593553 -1.3299194816405169 Q 2.2033839505051924 -1.3784109699169105 2.1857299042541 -1.448698484106589 Q 2.1680758580030077 -1.518985998296268 2.1887066312178987 -1.602474747218238 Q 2.2090975117209886 -1.6849926967341382 2.257337878726716 -1.7384821068183105 M 3.3218560194569458 -1.1182209504236829 L 2.9392526881796073 -1.3314313884783975 Q 2.9041909785311026 -1.258242068789498 2.926155346791413 -1.1939142635500413 Q 2.9481197150517238 -1.1295864583105848 3.011013413343889 -1.0945381671235084 Q 3.062551304999969 -1.0658180396229875 3.1104419868080955 -1.0706120563055572 Q 3.1583326686162225 -1.0754060729881272 3.1947010098284467 -1.107799648855438 L 3.280306321392783 -1.0600950302952508 Q 3.222633038528801 -1.0017958669762872 3.140884781569868 -0.9906840496552436 Q 3.059136524610935 -0.9795722323342 2.973531213046599 -1.0272768508943873 Q 2.905396373230087 -1.06524583301372 2.8687120363770244 -1.1257562406280393 Q 2.832027699523962 -1.1862666482423583 2.8328518014870268 -1.259646283400585 Q 2.833675903450091 -1.3330259185588118 2.875052358323723 -1.4072754234870626 Q 2.9164288131973546 -1.4815249284153131 2.9772826517793893 -1.520879856058896 Q 3.038136490361424 -1.5602347837024793 3.108652163846456 -1.5604342654118473 Q 3.1791678373314882 -1.5606337471212153 3.2490497243227825 -1.5216912013577972 Q 3.317184564139295 -1.4837222192384645 3.353045397433313 -1.4248155079446005 Q 3.388906230727332 -1.3659087966507366 3.3883322289060027 -1.2981137339845725 Q 3.387758227084674 -1.2303186713184084 3.351249590431469 -1.1648044022640698 Q 3.3385932630583586 -1.142092788991899 3.3218560194569458 -1.1182209504236829 M 3.301863158398337 -1.3165351846750124 Q 3.300026434214942 -1.3604883011091644 3.2750144980428235 -1.3967498930339803 Q 3.250002561870705 -1.433011484958796 3.208073429675928 -1.456377012416847 Q 3.1478003021459364 -1.4899649581377952 3.084016007987584 -1.4751388386616553 Q 3.0202317138292316 -1.4603127191855156 2.9761480665981606 -1.3955853521233024 L 3.27838722783551 -1.2271588416965187 Q 3.303699882581732 -1.2725820682408602 3.301863158398337 -1.3165351846750124 M 3.728108542519149 -1.175813571233084 Q 3.818821830767606 -1.1988211642221893 3.9069913272854935 -1.1730842280451257 Q 3.995160823803381 -1.147347291868062 4.062143293879022 -1.0771878398849846 Q 4.1408649597411165 -0.9947324014718828 4.1597798061056555 -0.8952727182479459 Q 4.1786946524701944 -0.7958130350240089 4.132573123425443 -0.6978599617767941 L 4.057304162206424 -0.7766989335928298 Q 4.082845954399622 -0.8411785183585481 4.069803446650161 -0.9040763958394713 Q 4.056760938900698 -0.9669742733203944 4.004279828325968 -1.0219445655957955 Q 3.953870340537084 -1.0747449779129572 3.889226993817374 -1.0932175988660158 Q 3.824583647097664 -1.1116902198190743 3.7565899639900504 -1.0924000913212804 Q 3.688596280882437 -1.0731099628234861 3.6278396420517303 -1.0151045248198378 Q 3.567806296540437 -0.9577896277448041 3.5453883147214045 -0.8907621401657407 Q 3.5229703329023714 -0.8237346525866772 3.5384297339019857 -0.7583052484878079 Q 3.5538891349015995 -0.6928758443889387 3.6042986226904845 -0.6400754320717771 Q 3.656779733265214 -0.585105139796376 3.7186445400750654 -0.568818774996956 Q 3.7805093468849167 -0.552532410197536 3.8461025129377773 -0.5750609824372903 L 3.921371474156797 -0.49622201062125454 Q 3.8221110459995007 -0.4553763572168821 3.7239955811592194 -0.47922180875749176 Q 3.625880116318938 -0.5030672602981014 3.547158450456844 -0.585522698711203 Q 3.4801759803812025 -0.6556821506942807 3.45818782258962 -0.7446035818396041 Q 3.436199664798038 -0.8335250129849274 3.4630215409542213 -0.9227303208957371 Q 3.4898434171104045 -1.0119356288065469 3.5636193356905483 -1.0823708035252628 Q 3.6373952542706918 -1.1528059782439786 3.728108542519149 -1.175813571233084 M 4.024835691082967 0.12006047164053613 L 4.205258808906064 -0.15603461805682362 L 4.15597580056304 -0.2543768017251835 L 3.901180142876834 -0.12668900738189412 L 3.860409654156696 -0.20804481387117368 L 4.483541490673486 -0.5203198758265164 L 4.584347644102398 -0.3191654092321439 Q 4.619741804639661 -0.24853784096123094 4.620020759145562 -0.18771702064134677 Q 4.6202997136514625 -0.12689620032146254 4.591271538892527 -0.08214840629578235 Q 4.562243364133591 -0.03740061227010219 4.509496192893289 -0.010966998704298403 Q 4.44512676358309 0.021290970392953634 4.377362536783133 0.00883065072594802 Q 4.309598309983176 -0.0036296689410575955 4.2563196827240715 -0.06976882434377976 L 4.073670672077418 0.21750863545736548 L 4.024835691082967 0.12006047164053613 M 4.2212392497247695 -0.28708279817100846 L 4.281274914433544 -0.16728413806591552 Q 4.314428938227942 -0.10112666905265527 4.3636376747060055 -0.08440093276893759 Q 4.412846411184069 -0.06767519648521997 4.467381622127433 -0.09500486474816963 Q 4.522810852922326 -0.12278256035969223 4.536854529651452 -0.17064721479203726 Q 4.5508982063805785 -0.21851186922438226 4.517296155237608 -0.28556335808917305 L 4.457260490528832 -0.405362018194266 L 4.2212392497247695 -0.28708279817100846 M 4.929132004183448 0.9698116531841786 L 4.244750144640063 1.0722102387600483 L 4.231284434687168 0.9822120462478401 L 4.741603855965183 0.9058570315698794 L 4.197250222718309 0.7547440871510503 L 4.187779833300887 0.6914486550545523 L 4.664906058901905 0.3864887153186469 L 4.153597646497381 0.46299170483125485 L 4.140131936544486 0.3729935123190467 L 4.824513796087871 0.270594926743177 L 4.839015329883297 0.3675160571409396 L 4.311193963190532 0.7053393909451361 L 4.914778445222669 0.8738795139129237 L 4.929132004183448 0.9698116531841786" fill="#000000" fill-rule="nonzero"></path></g><g clip-path="url(#SvgjsClipPath1001)"><g clip-path="url(#a47db8297-c467-4d68-80aa-1ef5de7947d3ed565193-31f8-4307-b47d-719182c93d9d)"><path d=" M 2.5826006769569574 0.9287092101106683 C 2.563337581135828 0.928709845499889 2.5459901178463062 0.9170520528340936 2.5387134293522085 0.8992162274935721 C 2.531436740858111 0.8813804021530505 2.535678388815422 0.8609146494176579 2.549444350124188 0.8474400373541039 L 2.8009414700569852 0.6012833701619614 C 2.8196910704397493 0.5832447676423915 2.849476575229223 0.5836924342788182 2.8676756003541537 0.602286362854419 C 2.8858746254790844 0.6208802914300198 2.8856828794125797 0.6506685430475131 2.8672459951795384 0.6690266473927289 L 2.615757003789726 0.9151833145848709 C 2.6069085092259234 0.9238689052173747 2.5949996697780144 0.9287270343768061 2.5826006769569574 0.9287092101106683" fill="#006fbf" transform="matrix(1,0,0,1,0,0)" fill-rule="nonzero"></path></g><g clip-path="url(#a47db8297-c467-4d68-80aa-1ef5de7947d3ed565193-31f8-4307-b47d-719182c93d9d)"><path d=" M 2.426288795369766 0.6696769308314687 C 2.4067101072390313 0.6696829663025037 2.389142601617844 0.6576502468084163 2.382073749852673 0.6393921965272521 C 2.3750048980875014 0.6211341462460879 2.379889647843121 0.6004087316061145 2.3943680070706033 0.5872291193421876 L 2.592867026746069 0.4065641229741738 C 2.605390736740241 0.39516573145577344 2.623044091532387 0.391314503195736 2.639177243084071 0.39646115863740605 C 2.655310394635755 0.4016078140790761 2.667472333378213 0.4149704538090467 2.6710817745957436 0.4315155006606594 C 2.6746912158132745 0.44806054751227214 2.669199799507293 0.46527441522068363 2.656676089097077 0.4766728062819656 L 2.4581770694969918 0.6573378025813722 C 2.4494602557279275 0.6652866751088554 2.438085714176443 0.6696880398998709 2.426288795369766 0.6696769308314687" fill="#006fbf" transform="matrix(1,0,0,1,0,0)" fill-rule="nonzero"></path></g><g clip-path="url(#a47db8297-c467-4d68-80aa-1ef5de7947d3ed565193-31f8-4307-b47d-719182c93d9d)"><path d=" M 2.4184691370189144 1.8625649993995925 L 2.4184691370189144 1.2257830705561736 C 2.4184691370189144 0.8802793510104874 2.1373922491664197 0.5991943346150087 1.7918966581637177 0.5991943346150087 C 1.4463929386180314 0.5991943346150087 1.1653079222225524 0.8802793510104876 1.1653079222225524 1.2257830705561739 L 1.1653079222225524 1.8137937414940728 L 1.0705209824831747 1.8137937414940728 L 1.0705209824831747 1.2257830705561736 C 1.0705209824831747 0.8280128196217387 1.3941264072292827 0.5044073948756309 1.7918885296207334 0.5044073948756309 L 1.7918966581637177 0.5044073948756309 C 2.1896506520121846 0.5044073948756309 2.513256076758292 0.828012819621739 2.513256076758292 1.2257830705561739 L 2.513256076758292 1.8788220853680988 Z" fill="#000000" transform="matrix(1,0,0,1,0,0)" fill-rule="nonzero"></path></g><g clip-path="url(#a47db8297-c467-4d68-80aa-1ef5de7947d3ed565193-31f8-4307-b47d-719182c93d9d)"><path d=" M 1.8001959005506405 1.299858482771674 L 1.7835974157767953 1.299858482771674 C 1.7603741684707834 1.299858482771674 1.7413777635165835 1.280862077817474 1.7413777635165835 1.2576388305114623 L 1.7413777635165835 0.8644449492771619 C 1.7413777635165835 0.8412217019711503 1.7603741684707834 0.8222252970169502 1.7835974157767953 0.8222252970169502 L 1.8001959005506405 0.8222252970169502 C 1.823411019313668 0.8222252970169502 1.8424155528108521 0.8412217019711503 1.8424155528108521 0.8644449492771619 L 1.8424155528108521 1.2576388305114623 C 1.8424155528108521 1.280862077817474 1.823411019313668 1.299858482771674 1.8001959005506405 1.299858482771674" fill="#000000" transform="matrix(1,0,0,1,0,0)" fill-rule="nonzero"></path></g><g clip-path="url(#a47db8297-c467-4d68-80aa-1ef5de7947d3ed565193-31f8-4307-b47d-719182c93d9d)"><path d=" M 1.7918966581637177 1.4330934308265695 C 1.783174731541614 1.4330934308265695 1.7760947706023293 1.426021598430269 1.7760947706023293 1.4172996718081654 L 1.7760947706023293 0.7221629328807923 C 1.7760947706023293 0.7134357913620963 1.783169516645022 0.7063610453194037 1.7918966581637177 0.7063610453194037 C 1.8006237996824133 0.7063610453194037 1.807698545725106 0.7134357913620963 1.807698545725106 0.7221629328807923 L 1.807698545725106 1.4172996718081654 C 1.80769405808719 1.42602363876444 1.800620626274223 1.4330934319807966 1.791896658163719 1.4330934308265695" fill="#000000" transform="matrix(1,0,0,1,0,0)" fill-rule="nonzero"></path></g><g clip-path="url(#a47db8297-c467-4d68-80aa-1ef5de7947d3ed565193-31f8-4307-b47d-719182c93d9d)"><path d=" M 1.6855915730156528 0.45739190225470977 L 1.8857000442020004 0.45739190225470977 C 1.9045834518419333 0.45744545931668606 1.9198794264188297 0.47273780237065377 1.9199374672516754 0.49162119676140037 C 1.9198794264188301 0.5105045911521469 1.9045834518419333 0.5257969342061146 1.8857000442020004 0.525850491268091 L 1.6855915730156528 0.525850491268091 C 1.6667094934120112 0.5257969120951757 1.6514158576818776 0.5105032763650421 1.6513622785089623 0.4916211967614004 C 1.651415857681878 0.4727391171577578 1.666709493412012 0.45744548142762465 1.6855915730156539 0.45739190225470977" fill="#000000" transform="matrix(1,0,0,1,0,0)" fill-rule="nonzero"></path></g><g clip-path="url(#a47db8297-c467-4d68-80aa-1ef5de7947d3ed565193-31f8-4307-b47d-719182c93d9d)"><path d=" M 1.7317535686232273 0.3704977777530419 L 1.839538048594426 0.3704977777530419 C 1.858420128198068 0.37055135692595725 1.8737137639282015 0.3858449926560908 1.8737673431011168 0.4047270722597325 C 1.8737137639282009 0.4236091518633751 1.858420128198067 0.4389027875935082 1.8395380485944253 0.43895636676642313 L 1.7317535686232273 0.43895636676642313 C 1.7128714890195857 0.43890278759350776 1.6975778532894523 0.4236091518633742 1.6975242741165368 0.40472707225973253 C 1.6975778532894525 0.3858449926560899 1.7128714890195864 0.37055135692595675 1.7317535686232284 0.3704977777530419" fill="#000000" transform="matrix(1,0,0,1,0,0)" fill-rule="nonzero"></path></g><g clip-path="url(#a47db8297-c467-4d68-80aa-1ef5de7947d3ed565193-31f8-4307-b47d-719182c93d9d)"><path d=" M 2.2316101908969 1.4330934308265695 L 1.3521668683445676 1.4330934308265695 C 1.343441971461036 1.4330934308265695 1.3363690450546712 1.4260205044202048 1.3363690450546712 1.4172956075366732 C 1.3363690450546712 1.4085707106531418 1.343441971461036 1.401497784246777 1.3521668683445676 1.401497784246777 L 2.2316101908969 1.401497784246777 C 2.2401954855681807 1.4016925402548357 2.24705370741597 1.4087081041453844 2.24705370741597 1.4172956075366732 C 2.24705370741597 1.425883110927962 2.2401954855681807 1.4328986748185109 2.2316101908969 1.4330934308265695" fill="#000000" transform="matrix(1,0,0,1,0,0)" fill-rule="nonzero"></path></g><g clip-path="url(#a47db8297-c467-4d68-80aa-1ef5de7947d3ed565193-31f8-4307-b47d-719182c93d9d)"><path d=" M 3.317664819022982 0.9040228250674914 C 3.303971988156371 0.904023509261931 3.2909481603005504 0.8981014318709591 3.2819480011501727 0.8877819961849533 L 3.1889330837813628 0.7811517693175187 C 3.182851901492417 0.7741806866853341 3.178944001019383 0.7655821753769874 3.1776913088341403 0.7564166130164358 C 3.1769516114225733 0.751734572257506 3.1573618228305227 0.6366018894285423 3.0123648730774124 0.6101109678428608 L 2.9069783132865683 0.6959727673855284 C 2.8884013977545893 0.7111025430272283 2.8614558526699367 0.7099933283557824 2.844185318733212 0.6933878907165357 L 2.5862341356709178 0.4452397304932512 C 2.5767662530631505 0.4361390863254687 2.5715025200252843 0.4235155475858872 2.5717003008150727 0.41038453817677306 C 2.571883633427964 0.39725817443600464 2.5775130054065447 0.38479818373864466 2.5872420750009653 0.37598454426741346 L 2.690149429181612 0.2826119710072956 C 2.6906533988466355 0.2767756771446017 2.69016568626758 0.26876906230511227 2.6853942315358235 0.2622499708317412 C 2.6802569923697757 0.25523503823633054 2.656578546656646 0.2325889174822009 2.5665793187349935 0.23471046720109096 C 2.5655741265961036 0.23473898933358192 2.56456822873711 0.2347308553886305 2.563563629287835 0.23468608157213808 C 2.4853345316073816 0.23167039212498028 2.2615720003368573 0.2321499761610512 2.1664517903351252 0.2706873984493961 C 2.1508775019772957 0.2769870192621924 2.1144209866929193 0.2917809674935333 2.0893281745005297 0.26309533930210355 C 2.0752414095088185 0.2470008241932819 2.0732417879346925 0.22411897569260894 2.0842478351353715 0.2048136861050074 C 2.117989417063007 0.14562976463665905 2.4682239486255284 -0.0505688773742625 2.809598368335214 0.012256631351031088 C 2.830960179297832 0.015117878481488177 2.948905337999347 0.03780464195053913 3.175171460509022 0.2054720980867318 C 3.1759111579205888 0.20602483900966104 3.1766427267891717 0.2065938370185588 3.177358038571786 0.20719534919939356 L 3.2322826035163854 0.2531216170604247 C 3.241750657590198 0.2610347978359137 3.24775814036043 0.2723294486947049 3.249027402063947 0.2846034640384378 L 3.252351976144507 0.31675185154115953 C 3.2547986675827674 0.33018833309413026 3.2831103827969215 0.463553337836774 3.4479734916035465 0.49990418206235465 C 3.4570668396861444 0.5019079804769367 3.4653678531149654 0.506547613663822 3.471838893805314 0.5132431210995143 L 3.574282921035859 0.619166164727319 C 3.583168897023787 0.628350370834197 3.5879682093650374 0.6407345824006275 3.5875917008314757 0.6535083231368337 C 3.587215192297914 0.6662820638730399 3.5816947914236867 0.678362099852242 3.572283299461732 0.687006984473897 L 3.349731921095861 0.8915211259577098 C 3.3409873870347258 0.8995598718583584 3.3295428790575112 0.9040216344106918 3.317664819022982 0.9040228250674914 M 3.2688610469455255 0.7285763532953684 L 3.3214039487957385 0.7888169853516694 L 3.4723509920133218 0.6501115278683712 L 3.413329641404659 0.5890824271425974 C 3.1910302478713 0.5323858398274308 3.1597272288389404 0.3384875754810528 3.15848356176235 0.3300907905783191 C 3.158376867531122 0.3293998001667919 3.1582901270025014 0.3287058759378249 3.158223448386854 0.32800988357435024 L 3.1567196679347664 0.3134923058044738 L 3.1176213761805087 0.28080743446479134 C 2.9028002421926624 0.12182939077876533 2.7978363666369996 0.10632825930779434 2.796804041677999 0.10618194553407785 C 2.795757339836411 0.10604925602391939 2.7947138905031697 0.10589206105943107 2.7936745526290623 0.10571049004099123 C 2.654050569788543 0.07969915249138053 2.51327233384426 0.1041335527020458 2.4001067584174858 0.1406957390452172 C 2.4837575942684365 0.13723297973392526 2.5534598503584083 0.13945207196862636 2.5657502073505993 0.1399072703757447 C 2.6636910217678675 0.13773694939894907 2.730076832320264 0.1607732402163229 2.763363215840781 0.20832521667420467 C 2.8003887291340552 0.26122577441572514 2.779473988035571 0.31879211583020695 2.776970396796421 0.3251811506158301 C 2.7742983899902325 0.33197514168766784 2.770095378771078 0.33806130220885244 2.7646881683472144 0.3429664026653764 L 2.6885074634987927 0.41209153220346634 L 2.8796420232305247 0.5959754315932443 L 2.9687227257949567 0.5234037998298309 C 2.9786670702723175 0.5152638029738662 2.9915029190881253 0.5115351826636932 3.004260715722112 0.5130805502398291 C 3.181080911258574 0.5341253480260609 3.2523032048866014 0.6556308085546793 3.2688610469455255 0.7285763532953682" fill="#006fbf" transform="matrix(1,0,0,1,0,0)" fill-rule="nonzero"></path></g><g clip-path="url(#a47db8297-c467-4d68-80aa-1ef5de7947d3ed565193-31f8-4307-b47d-719182c93d9d)"><path d=" M 0.9382452025004209 0.9155734846481153 C 0.9283922317818304 0.9155816070935254 0.918784226993769 0.9125030659143922 0.9107707272136447 0.9067702725961688 L 0.7251391910822522 0.7744294642695411 C 0.5486522658081447 0.804334373908609 0.44072960060621375 0.7720884438900761 0.43607194547623657 0.7706496917818633 C 0.43492582091545684 0.7703001644335404 0.43379595344064564 0.7699018658273119 0.432682343051803 0.7694629245061623 C 0.29482225403886697 0.7151967715432873 0.21012283614294774 0.5321988833387928 0.19879164722289855 0.506496430422584 C 0.18565592176034532 0.48337885417536763 0.15917312871764816 0.43401421263199735 0.19090696052817285 0.3996223472656217 C 0.20835081377238057 0.3807316133702171 0.23690638527606234 0.3763990999596101 0.26416951844524794 0.38826677271661986 L 0.44530597030634833 0.4550102391603237 L 0.4610753436957997 0.4530675173870871 L 0.5199341234447779 0.29331726211755715 L 0.339074042045142 0.22244449583785272 C 0.30210542855275807 0.20882918633922848 0.2963910628348279 0.18013542960481427 0.2957001366811665 0.16844658479345806 C 0.2933266021297645 0.12843789622496332 0.3322135517664323 0.09994735306515559 0.36524795045443764 0.08309688345879844 C 0.36659728858982366 0.082405957305137 0.36797101235416246 0.08178005949534944 0.3693853788334226 0.0812273185724202 C 0.5581707896427054 0.006680450863833239 0.6541851393727053 0.03549613574301113 0.6783675547508589 0.04559991467243808 C 0.8016287805640757 0.08443809305120031 0.8667871811258503 0.2478949639215498 0.8778094854124977 0.2778892875334444 L 0.9285397221772226 0.37934976106289403 L 1.180890339123366 0.5781739224577296 C 1.190764832205496 0.585951565193169 1.197144847565962 0.5973336050648289 1.1986265964578156 0.609815662602377 C 1.200108345349669 0.6222977201399248 1.1965704258007641 0.634857121117094 1.1887912829040603 0.6447304324127955 C 1.1810162118966172 0.6546086346956743 1.1696337088774125 0.6609914774667076 1.1571503372410152 0.6624733823556399 C 1.144666965604618 0.6639552872445722 1.1321064523948203 0.6604147272989652 1.1222347729489943 0.6526313761934898 L 0.8615605279869752 0.4472474806103617 C 0.856077223704256 0.4429333019311872 0.8516164171583389 0.43745930659294924 0.8484979594112801 0.43121799384541415 L 0.7917932435531292 0.31780856212911224 C 0.7909234894538141 0.31607718247346633 0.7901675349562787 0.31428077447394637 0.7895091229745541 0.3124518523024893 C 0.7744713184536854 0.2704516707028525 0.7197662241696607 0.1566439403803221 0.6483813596819483 0.13555849987916913 C 0.6446991297100816 0.13446927511927906 0.643650547665113 0.1343473469745153 0.6407080151048133 0.1326078387758851 C 0.6332460126452687 0.12990103396212882 0.5704936608068333 0.11029498828410975 0.4345519079381812 0.15805830685958228 L 0.5977567939760189 0.22200555451670295 C 0.6217732367068196 0.23141807969365763 0.6338503365047646 0.2583106704492373 0.6249305131723777 0.2825144284914845 L 0.5400278817018519 0.5129504935520811 C 0.5338935987719183 0.5296026599236358 0.5189724445573086 0.5414341910772006 0.5013604027257591 0.5436113576886845 L 0.44550918388095456 0.550496233596347 C 0.4380158749134927 0.5514186694802519 0.430410618188331 0.5505380314717684 0.42332639007692735 0.547927614013323 L 0.302812611792388 0.5035295122333315 C 0.33429445877040104 0.5621688213217348 0.39431562016612737 0.6512413953431824 0.46536721439148543 0.6804391217426201 C 0.47782827078634577 0.6837149245652743 0.5747286317016292 0.7068975291563647 0.72750459709067 0.6776835456709583 C 0.7402193517064628 0.6752385223696462 0.7533804100240118 0.6781181466498869 0.7639123411171405 0.6856495177955265 L 0.9658009632170395 0.8295816284176996 C 0.9825801496950708 0.8415569931356907 0.9896969967805518 0.8630031516987884 0.9834063057947533 0.8826341900288066 C 0.9771156148089549 0.902265228358825 0.9588595277752249 0.9155807274395402 0.9382452025004209 0.9155734846481153" fill="#006fbf" transform="matrix(1,0,0,1,0,0)" fill-rule="nonzero"></path></g><g clip-path="url(#a47db8297-c467-4d68-80aa-1ef5de7947d3ed565193-31f8-4307-b47d-719182c93d9d)"><path d=" M 1.778305734294046 0.324547124263058 C 1.7521287990082877 0.324547124263058 1.730908200152865 0.30332652540763566 1.730908200152865 0.277149590121877 C 1.730908200152865 0.2296382563789165 1.717000263106808 0.1955634041889267 1.6883796632592518 0.17296605469270257 C 1.6203031157661305 0.11922012848081978 1.481418830337179 0.13702163761633449 1.4336473832187222 0.14840159779428913 C 1.324291383844946 0.17358813029712714 1.218218004428665 0.21134717656485932 1.117544603647079 0.26092501832530773 C 1.1062678059803106 0.26648037470193264 1.0932457752860647 0.26732753897347683 1.081344254405684 0.2632800767040505 C 1.069442733525303 0.2592326144346242 1.0596370282737269 0.25062220705610455 1.0540850685690146 0.23934373670211495 C 1.0485291412319362 0.22806793520114801 1.047680782407747 0.21504669642923988 1.0517266717663416 0.20314531804847605 C 1.0557725611249362 0.19124393966771222 1.0643811809706956 0.18143761333208486 1.0756582216492228 0.1758842016240495 C 1.1827630654565158 0.12312551916311376 1.2956147867982342 0.08294154510258649 1.411960430536734 0.05613450638003007 C 1.4202759300096253 0.054118627719935156 1.628602358153053 0.005249827298604377 1.7468970442028913 0.0984029298981471 C 1.7991879612205928 0.13957400011339002 1.8257032684352268 0.19970896111089587 1.8257032684352268 0.277149590121877 C 1.8257032684352268 0.3033265254076356 1.8044826695798046 0.32454712426305793 1.778305734294046 0.324547124263058" fill="#000000" transform="matrix(1,0,0,1,0,0)" fill-rule="nonzero"></path></g><g clip-path="url(#a47db8297-c467-4d68-80aa-1ef5de7947d3ed565193-31f8-4307-b47d-719182c93d9d)"><path d=" M 0.35359161981501835 1.8906978866680932 L 0.24792056101972554 1.8972007210554958 C 0.24792056101972554 1.8972007210554958 0.25105005006866304 1.8176222852396562 0.25105005006866304 1.539609858092225 C 0.25105005006866304 1.3303811616775452 0.2924812336594021 1.1275496285914728 0.3741893477371162 0.9367645962080637 C 0.37913557678683585 0.9252063855472726 0.388472614793214 0.9160878012928151 0.4001446648243091 0.9114165419804751 C 0.4118167148554044 0.906745282668135 0.4248667551962928 0.90690435698842 0.43642147282455934 0.9118587405043115 C 0.4479761917248372 0.9168067455109559 0.4570918096656205 0.9261425587999691 0.4617626618206098 0.9378120670396698 C 0.4664335139755991 0.9494815752793706 0.46627691785179004 0.9625286967191232 0.4613273285283115 0.9740827370487706 C 0.3846995538157557 1.1530163537611382 0.34584511835102494 1.3432811593935552 0.34584511835102494 1.539609858092225 Z" fill="#000000" transform="matrix(1,0,0,1,0,0)" fill-rule="nonzero"></path></g><g clip-path="url(#a47db8297-c467-4d68-80aa-1ef5de7947d3ed565193-31f8-4307-b47d-719182c93d9d)"><path d=" M 3.2229672932564313 2.0451402033689057 L 3.125424777445392 1.9703576079137752 C 3.125424777445392 1.9703576079137752 3.2229672932564313 1.7521306144155273 3.221162756713927 1.5396098580922246 C 3.221162756713927 1.3457278508318153 3.183234975149401 1.1576496232621625 3.1084361226083024 0.9805936999791574 C 3.0988037343000436 0.956603924785995 3.1101675628429346 0.9293199321299157 3.1339814643623747 0.9192605925510996 C 3.1577953658818156 0.9092012529722836 3.1852779784756344 0.9200759419070196 3.195761059888135 0.9437063719166158 C 3.2755101951066443 1.1324917827258985 3.315949696453305 1.3329904239754902 3.315949696453305 1.5396098580922246 C 3.315949696453305 1.5396098580922246 3.3205098090674707 1.7931553708570536 3.2229672932564313 2.0451402033689057" fill="#000000" transform="matrix(1,0,0,1,0,0)" fill-rule="nonzero"></path></g><g clip-path="url(#a47db8297-c467-4d68-80aa-1ef5de7947d3ed565193-31f8-4307-b47d-719182c93d9d)"><path d=" M 0.03657844342913983 1.9752347337043272 C 0.03657844342913983 1.9752347337043272 1.946786044728664 1.4680136514869218 3.450566496815524 2.1264256332114386" fill="none" transform="matrix(1,0,0,1,0,0)" fill-rule="nonzero" stroke-dasharray="none" stroke-miterlimit="4" stroke-linejoin="miter" stroke-linecap="round" stroke-width="0.07315688685827966" stroke="#000000"></path></g></g><g transform="matrix(0.6751860728714965,0.7376474544119068,-0.7376474544119068,0.6751860728714965,1.152308889048081,1.2557670955111706)"><g clip-path="url(#SvgjsClipPath1002)"><path d=" M -0.84938388774185 2.095460121367062 C -0.8256429231704214 2.095460121367062 -0.8130305357418501 2.080622018509919 -0.8130305357418501 2.0598486745099187 C -0.8130305357418501 2.048720097367062 -0.81562720374185 2.039075330509919 -0.8256429231704214 2.019043891652776 C -0.8397391208847071 1.9912224487956331 -0.8423357888847072 1.9823195870813475 -0.8449324568847072 1.956723859652776 C -0.8267557808847072 1.9585786225099189 -0.8111757728847071 1.962659100795633 -0.7981924328847072 1.9685943419384904 C -0.7648067014561357 1.9838033973670617 -0.7551619345989928 1.987883875652776 -0.7410657368847072 1.987883875652776 C -0.7217762031704215 1.987883875652776 -0.7061961951704214 1.974900535652776 -0.7061961951704214 1.951530523652776 C -0.7061961951704214 1.9285314642242046 -0.721405250598993 1.915177171652776 -0.7410657368847072 1.915177171652776 C -0.7521943140275643 1.915177171652776 -0.7659195591704215 1.9192576499384904 -0.7826124248847073 1.9270476539384902 L -0.7981924328847072 1.9344667053670617 C -0.8126595831704215 1.941143851652776 -0.8282395911704215 1.9452243299384904 -0.8449324568847072 1.9470790927956332 C -0.8423357888847072 1.9248219385099188 -0.8364005477418501 1.9051614522242046 -0.8271267334561357 1.887355728795633 C -0.8178529191704215 1.8699209579384903 -0.8130305357418501 1.8550828550813474 -0.8130305357418501 1.843212372795633 C -0.8130305357418501 1.8239228390813473 -0.8241591128847072 1.8083428310813474 -0.84938388774185 1.8083428310813474 C -0.8749796151704214 1.8083428310813474 -0.8864791448847072 1.8235518865099187 -0.8864791448847072 1.843212372795633 C -0.8864791448847072 1.855453807652776 -0.8835115243132786 1.8632438116527759 -0.8664477060275644 1.9003390687956332 C -0.8605124648847072 1.913322408795633 -0.8564319865989929 1.928902416795633 -0.8545772237418501 1.9470790927956332 C -0.87275389974185 1.9452243299384904 -0.8913015283132786 1.9396600413670617 -0.910962014598993 1.9296443219384902 C -0.9302518574404215 1.9199995550813473 -0.94620281801185 1.915177171652776 -0.9584442528689929 1.915177171652776 C -0.9777337865832787 1.915177171652776 -0.9933137945832786 1.928160511652776 -0.9933137945832786 1.951530523652776 C -0.9933137945832786 1.974900535652776 -0.9781047391547072 1.987883875652776 -0.9584442528689929 1.987883875652776 C -0.9450899602975643 1.987883875652776 -0.9369290037261357 1.9849162550813473 -0.9013172477418501 1.9685943419384904 C -0.8883339077418501 1.962659100795633 -0.87275389974185 1.9585786225099189 -0.8545772237418501 1.956723859652776 C -0.8571738917418501 1.9789810139384902 -0.8631091328847071 1.9986415002242046 -0.8723829471704214 2.016447223652776 C -0.8816567614561358 2.033881994509919 -0.8864791448847072 2.0483491447956332 -0.8864791448847072 2.0598486745099187 C -0.8864791448847072 2.0802510659384903 -0.8738667574561357 2.095460121367062 -0.84938388774185 2.095460121367062 Z" fill="#006fbf" transform="matrix(1,0,0,1,0,0)" fill-rule="nonzero"></path></g></g><g transform="matrix(-0.6751860728714965,0.7376474544119068,0.7376474544119068,0.6751860728714965,6.00510079104933,-2.644271811794285)"><g clip-path="url(#SvgjsClipPath1003)"><path d=" M 4.437747361717665 2.095460121367062 C 4.461488326289094 2.095460121367062 4.4741007137176645 2.080622018509919 4.4741007137176645 2.0598486745099187 C 4.4741007137176645 2.048720097367062 4.471504045717665 2.039075330509919 4.461488326289094 2.019043891652776 C 4.4473921285748075 1.9912224487956331 4.444795460574808 1.9823195870813475 4.442198792574808 1.956723859652776 C 4.460375468574807 1.9585786225099189 4.475955476574808 1.962659100795633 4.488938816574808 1.9685943419384904 C 4.522324548003379 1.9838033973670617 4.531969314860522 1.987883875652776 4.546065512574808 1.987883875652776 C 4.565355046289094 1.987883875652776 4.580935054289093 1.974900535652776 4.580935054289093 1.951530523652776 C 4.580935054289093 1.9285314642242046 4.565725998860522 1.915177171652776 4.546065512574808 1.915177171652776 C 4.534936935431951 1.915177171652776 4.5212116902890935 1.9192576499384904 4.504518824574808 1.9270476539384902 L 4.488938816574808 1.9344667053670617 C 4.4744716662890935 1.941143851652776 4.458891658289093 1.9452243299384904 4.442198792574808 1.9470790927956332 C 4.444795460574808 1.9248219385099188 4.4507307017176645 1.9051614522242046 4.460004516003379 1.887355728795633 C 4.469278330289093 1.8699209579384903 4.4741007137176645 1.8550828550813474 4.4741007137176645 1.843212372795633 C 4.4741007137176645 1.8239228390813473 4.462972136574808 1.8083428310813474 4.437747361717665 1.8083428310813474 C 4.412151634289093 1.8083428310813474 4.4006521045748075 1.8235518865099187 4.4006521045748075 1.843212372795633 C 4.4006521045748075 1.855453807652776 4.403619725146236 1.8632438116527759 4.4206835434319505 1.9003390687956332 C 4.426618784574807 1.913322408795633 4.4306992628605215 1.928902416795633 4.432554025717665 1.9470790927956332 C 4.414377349717665 1.9452243299384904 4.395829721146236 1.9396600413670617 4.376169234860522 1.9296443219384902 C 4.356879392019094 1.9199995550813473 4.340928431447665 1.915177171652776 4.3286869965905215 1.915177171652776 C 4.309397462876237 1.915177171652776 4.293817454876236 1.928160511652776 4.293817454876236 1.951530523652776 C 4.293817454876236 1.974900535652776 4.3090265103048075 1.987883875652776 4.3286869965905215 1.987883875652776 C 4.34204128916195 1.987883875652776 4.350202245733379 1.9849162550813473 4.385814001717665 1.9685943419384904 C 4.398797341717665 1.962659100795633 4.414377349717665 1.9585786225099189 4.432554025717665 1.956723859652776 C 4.429957357717665 1.9789810139384902 4.4240221165748075 1.9986415002242046 4.414748302289094 2.016447223652776 C 4.405474488003379 2.033881994509919 4.4006521045748075 2.0483491447956332 4.4006521045748075 2.0598486745099187 C 4.4006521045748075 2.0802510659384903 4.413264492003379 2.095460121367062 4.437747361717665 2.095460121367062 Z" fill="#006fbf" transform="matrix(1,0,0,1,0,0)" fill-rule="nonzero"></path></g></g></g><defs><clipPath id="SvgjsClipPath1001"><path d=" M 0 0 h 3.5876122950186717 v 2.1630040766405787 h -3.5876122950186717 Z"></path></clipPath><clipPath id="a47db8297-c467-4d68-80aa-1ef5de7947d3ed565193-31f8-4307-b47d-719182c93d9d"><path d=" M 0 2.1630040766405783 L 3.58760560298705 2.1630040766405783 L 3.58760560298705 -0.0000012114692232517268 L 0 -0.0000012114692232517268 Z"></path></clipPath><clipPath id="SvgjsClipPath1002"><path d=" M -1.0661484772204215 1.7199324682242045 h 0.432778 v 0.432778 h -0.432778 Z"></path></clipPath><clipPath id="SvgjsClipPath1003"><path d=" M 4.220982772239093 1.7199324682242045 h 0.432778 v 0.432778 h -0.432778 Z"></path></clipPath></defs></svg>